# xmcd
#
# Track frame offsets:
#	150
#	13972
#	25398
#	38245
#	53538
#	67503
#	80393
#	96315
#	109451
#	121894
#	135544
#	150537
#	164216
#	176951
#	190568
#	204765
#	215609
#
# Disc length: 3048 seconds
#
# Revision: 0
# Processed by: cddbd v1.5.2PL0 Copyright (c) Steve Scherf et al.
# Submitted via: EasyCDDAExtractor 16.0.8.1
#
DISCID=e60be611
DTITLE=MARÍLIA MENDONÇA - MARÍLIA MENDONÇA AO VIVO
DYEAR=2016
DGENRE=
TTITLE0=MARÍLIA MENDONÇA - ALÔ PORTEIRO
TTITLE1=MARÍLIA MENDONÇA - COMO FAZ COM ELA
TTITLE2=MARÍLIA MENDONÇA - HOJE SOMOS SÓ METADE 
TTITLE3=MARÍLIA MENDONÇA - INFIEL 
TTITLE4=MARÍLIA MENDONÇA - O QUE É AMOR PRA VOCÊ
TTITLE5=MARÍLIA MENDONÇA - SENTIMENTO LOUCO 
TTITLE6=MARÍLIA MENDONÇA - ESSE CARA AQUI DO LADO 
TTITLE7=MARÍLIA MENDONÇA - SILÊNCIO
TTITLE8=MARÍLIA MENDONÇA - FOLGADO 
TTITLE9=MARÍLIA MENDONÇA  - IMPASSE (HENRIQUE and JULIANO)
TTITLE10=MARÍLIA MENDONÇA - O QUE FALTA EM VOCÊ SOU EU 
TTITLE11=MARÍLIA MENDONÇA - 4 E 15 
TTITLE12=MARÍLIA MENDONÇA - ME DESCULPE, MAS EU SOU FIEL 
TTITLE13=MARÍLIA MENDONÇA - ESSAS NOSSAS BRIGAS 
TTITLE14=MARÍLIA MENDONÇA - ENTRE QUATRO PAREDES 
TTITLE15=MARÍLIA MENDONÇA - MEU CUPIDO É GARI
TTITLE16=MARÍLIA MENDONÇA - A VOZ DO CORAÇÃO 
EXTD=
EXTT0=
EXTT1=
EXTT2=
EXTT3=
EXTT4=
EXTT5=
EXTT6=
EXTT7=
EXTT8=
EXTT9=
EXTT10=
EXTT11=
EXTT12=
EXTT13=
EXTT14=
EXTT15=
EXTT16=
PLAYORDER=
